<svg width="77" height="124" viewBox="0 0 77 124" fill="none" xmlns="http://www.w3.org/2000/svg">
<path d="M0 76V0H14V76H0Z" fill="#F4F5F0"/>
<path d="M16 76V0H25V76H16Z" fill="#F4F5F0"/>
<path d="M29 0H58.9091C63.6316 1.52 67.6419 4.34286 70.9402 8.46857C74.3134 12.5219 76 17.5162 76 23.4514C76 33.1505 72.0271 40.28 64.0813 44.84L75.4378 76H59.6962L50.1388 48.3143H44.1794V76H29V0ZM44.1794 13.0286V36.1543H53.8493C55.1236 35.8648 56.5104 34.6343 58.0096 32.4629C59.5837 30.219 60.3708 27.6133 60.3708 24.6457C60.3708 21.6781 59.6962 19.0724 58.3469 16.8286C57.0726 14.5848 55.7982 13.3181 54.5239 13.0286H44.1794Z" fill="#F4F5F0"/>
<path d="M0 81H76V95.1952H43.9714V95.7133L76 108.665V123.275L39.7371 108.147L0 124V108.251L33.2229 95.9205V95.1952H0V81Z" fill="#F4F5F0"/>
</svg>
